<svg xmlns="http://www.w3.org/2000/svg" width="100" height="60" fill="none" viewBox="0 0 100 60">
    <path fill="#000" fill-rule="evenodd" d="M10.643.71H0v31.102h24.895v-8.13H10.643V.71zM35.98 30.993c-.404-.171-.8-.357-1.19-.557-2.705-1.392-4.825-3.318-6.358-5.776-1.534-2.488-2.3-5.287-2.3-8.397 0-3.11.766-5.895 2.3-8.353 1.533-2.489 3.653-4.429 6.359-5.82C37.497.695 40.547 0 43.946 0c3.397 0 6.449.696 9.155 2.088 2.706 1.392 4.825 3.332 6.359 5.82 1.533 2.46 2.3 5.243 2.3 8.354 0 3.11-.767 5.909-2.3 8.397-1.034 1.657-2.334 3.072-3.9 4.245.103.042.206.084.308.128 2.465 1.007 4.51 2.488 6.133 4.443l-6.81 5.91c-1.984-2.281-4.344-3.422-7.08-3.422-2.345 0-4.21.696-5.592 2.088-1.383 1.393-2.075 3.288-2.075 5.688 0 2.34.676 4.22 2.03 5.642 1.383 1.422 3.217 2.133 5.502 2.133 1.353 0 2.645-.252 3.878-.756v-7.864H61.1v13.152c-1.864 1.273-4.028 2.25-6.494 2.932C52.14 59.66 49.72 60 47.345 60c-3.368 0-6.39-.681-9.066-2.044-2.676-1.392-4.78-3.317-6.314-5.776-1.503-2.488-2.255-5.302-2.255-8.441 0-3.14.752-5.94 2.255-8.398 1.06-1.718 2.397-3.167 4.015-4.349zm11.529-7.888c-1.053.622-2.24.933-3.563.933s-2.526-.311-3.608-.933c-1.053-.652-1.894-1.555-2.526-2.71-.631-1.185-.947-2.563-.947-4.132 0-1.57.316-2.933.947-4.088.632-1.185 1.473-2.088 2.526-2.71 1.082-.652 2.285-.978 3.608-.978s2.51.326 3.563.978c1.082.622 1.939 1.525 2.57 2.71.632 1.155.947 2.518.947 4.088 0 1.57-.316 2.947-.947 4.131-.631 1.156-1.488 2.06-2.57 2.71zM73.03 57.912C75.737 59.304 78.788 60 82.186 60c3.397 0 6.449-.696 9.155-2.088 2.706-1.392 4.826-3.318 6.359-5.776 1.533-2.488 2.3-5.287 2.3-8.398 0-3.11-.767-5.894-2.3-8.352-1.533-2.488-3.653-4.429-6.359-5.82-2.706-1.393-5.758-2.089-9.155-2.089-3.398 0-6.45.696-9.155 2.088-2.706 1.392-4.826 3.333-6.36 5.82-1.533 2.46-2.3 5.243-2.3 8.354 0 3.11.767 5.909 2.3 8.397 1.534 2.458 3.654 4.384 6.36 5.776zm12.718-7.331c-1.053.622-2.24.933-3.563.933s-2.526-.311-3.608-.933c-1.052-.652-1.894-1.555-2.526-2.71-.631-1.185-.947-2.563-.947-4.133 0-1.57.316-2.932.947-4.087.632-1.185 1.474-2.088 2.526-2.71 1.082-.652 2.285-.978 3.608-.978s2.51.326 3.563.978c1.082.622 1.939 1.525 2.57 2.71.632 1.155.947 2.518.947 4.087 0 1.57-.315 2.948-.947 4.133-.631 1.155-1.488 2.058-2.57 2.71z" clip-rule="evenodd"/>
</svg>
